<?xml version="1.0" encoding="UTF-8"?>
<svg version="1.1" xmlns="http://www.w3.org/2000/svg" width="16" height="16">
<path d="M0 0 C1.32 0.33 2.64 0.66 4 1 C4.33 1.99 4.66 2.98 5 4 C6.65 3.67 8.3 3.34 10 3 C9.319375 3.66 8.63875 4.32 7.9375 5 C5.23797743 9.17990592 6.0280147 11.22107226 7 16 C6.01 16 5.02 16 4 16 C3.34 14.68 2.68 13.36 2 12 C1.34 13.32 0.68 14.64 0 16 C-1.65 16 -3.3 16 -5 16 C-5.33 13.03 -5.66 10.06 -6 7 C-5.34 7.66 -4.68 8.32 -4 9 C-2.68 6.03 -1.36 3.06 0 0 Z " fill="#6C0004" transform="translate(6,0)"/>
<path d="M0 0 C2.0625 0.4375 2.0625 0.4375 4 1 C4 2.65 4 4.3 4 6 C3.01 6 2.02 6 1 6 C1 6.66 1 7.32 1 8 C-0.98 8.99 -0.98 8.99 -3 10 C-2.69201674 8.51988629 -2.378482 7.04092675 -2.0625 5.5625 C-1.88847656 4.73878906 -1.71445313 3.91507812 -1.53515625 3.06640625 C-1 1 -1 1 0 0 Z " fill="#03C7FB" transform="translate(6,0)"/>
<path d="M0 0 C0.66 0.33 1.32 0.66 2 1 C2.59355614 3.64860427 2.74209269 6.29197322 3 9 C2.01 9 1.02 9 0 9 C-1.36623674 6.26752652 -1.128426 4.01801098 -1 1 C-0.67 0.67 -0.34 0.34 0 0 Z " fill="#02CFF8" transform="translate(10,7)"/>
<path d="M0 0 C0.598125 0.33 1.19625 0.66 1.8125 1 C4.05386471 2.20787988 4.05386471 2.20787988 7 2 C6.01 3.32 5.02 4.64 4 6 C2.68 5.67 1.36 5.34 0 5 C0 3.35 0 1.7 0 0 Z " fill="#AE0615" transform="translate(0,7)"/>
<path d="M0 0 C-5.625 4 -5.625 4 -9 4 C-9 3.34 -9 2.68 -9 2 C-3.375 -1.125 -3.375 -1.125 0 0 Z " fill="#91050E" transform="translate(16,4)"/>
</svg>
